<?xml version="1.0" encoding="iso-8859-1"?>
<!-- Generator: Adobe Illustrator 19.1.0, SVG Export Plug-In . SVG Version: 6.00 Build 0)  -->
<svg version="1.1" id="Capa_1" xmlns="http://www.w3.org/2000/svg" xmlns:xlink="http://www.w3.org/1999/xlink" x="0px" y="0px"
	 viewBox="0 0 50.001 50.001" style="enable-background:new 0 0 50.001 50.001;" xml:space="preserve">
<g id="displace_1_">
	<g>
		<path d="M19.001,27.001v-4h-11l5-5l-3-3l-10,10l10,10l3-3l-5-5H19.001z M23.001,8.001v11h4v-11l5,5l3-3L25,0L15,10.001l3,3
			L23.001,8.001z M27,42.001v-11h-4v11l-5-5l-3,3l10,10l10-10l-3-3L27,42.001z M40,15.001l-3,3l5,5H31v4h11l-5,5l3,3l10-10
			L40,15.001z"/>
	</g>
</g>
<g>
</g>
<g>
</g>
<g>
</g>
<g>
</g>
<g>
</g>
<g>
</g>
<g>
</g>
<g>
</g>
<g>
</g>
<g>
</g>
<g>
</g>
<g>
</g>
<g>
</g>
<g>
</g>
<g>
</g>
</svg>
